<?xml version="1.0" encoding="UTF-8" standalone="no"?>
<!-- Created with Inkscape (http://www.inkscape.org/) -->

<svg
   xmlns:dc="http://purl.org/dc/elements/1.1/"
   xmlns:cc="http://creativecommons.org/ns#"
   xmlns:rdf="http://www.w3.org/1999/02/22-rdf-syntax-ns#"
   xmlns:svg="http://www.w3.org/2000/svg"
   xmlns="http://www.w3.org/2000/svg"
   xmlns:sodipodi="http://sodipodi.sourceforge.net/DTD/sodipodi-0.dtd"
   xmlns:inkscape="http://www.inkscape.org/namespaces/inkscape"
   width="744.09448819"
   height="1052.3622047"
   id="svg2"
   version="1.1"
   inkscape:version="0.48.4 r9939"
   sodipodi:docname="Shelf.svg">
  <defs
     id="defs4" />
  <sodipodi:namedview
     id="base"
     pagecolor="#ffffff"
     bordercolor="#666666"
     borderopacity="1.0"
     inkscape:pageopacity="0.0"
     inkscape:pageshadow="2"
     inkscape:zoom="0.7"
     inkscape:cx="637.45603"
     inkscape:cy="653.98409"
     inkscape:document-units="mm"
     inkscape:current-layer="layer1"
     showgrid="false"
     inkscape:window-width="1920"
     inkscape:window-height="1018"
     inkscape:window-x="-8"
     inkscape:window-y="-8"
     inkscape:window-maximized="1" />
  <metadata
     id="metadata7">
    <rdf:RDF>
      <cc:Work
         rdf:about="">
        <dc:format>image/svg+xml</dc:format>
        <dc:type
           rdf:resource="http://purl.org/dc/dcmitype/StillImage" />
        <dc:title />
      </cc:Work>
    </rdf:RDF>
  </metadata>
  <g
     inkscape:label="Layer 1"
     inkscape:groupmode="layer"
     id="layer1">
    <rect
       style="opacity:0.98999999;fill:#cccccc;fill-opacity:1;stroke:#000000;stroke-width:2.27010226;stroke-miterlimit:4;stroke-opacity:1;stroke-dasharray:none"
       id="rect2985"
       width="670.95825"
       height="670.95825"
       x="45.420765"
       y="173.12604" />
    <path
       sodipodi:type="arc"
       style="opacity:0.98999999;fill:#ffffff;fill-opacity:1;stroke:#000000;stroke-width:1.77165353;stroke-miterlimit:4;stroke-opacity:1;stroke-dasharray:none"
       id="path3755"
       sodipodi:cx="-214.15234"
       sodipodi:cy="528.09302"
       sodipodi:rx="35.355339"
       sodipodi:ry="37.375645"
       d="m -178.797,528.09302 a 35.355339,37.375645 0 1 1 -70.71068,0 35.355339,37.375645 0 1 1 70.71068,0 z"
       transform="matrix(1.6632079,0,0,1.5733047,567.00101,-152.16733)" />
    <path
       sodipodi:type="arc"
       style="opacity:0.98999999;fill:#ffffff;fill-opacity:1;stroke:#000000;stroke-width:1.77165353;stroke-miterlimit:4;stroke-opacity:1;stroke-dasharray:none"
       id="path3755-1"
       sodipodi:cx="-214.15234"
       sodipodi:cy="528.09302"
       sodipodi:rx="35.355339"
       sodipodi:ry="37.375645"
       d="m -178.797,528.09302 a 35.355339,37.375645 0 1 1 -70.71068,0 35.355339,37.375645 0 1 1 70.71068,0 z"
       transform="matrix(1.6632079,0,0,1.5733047,567.00101,-492.32486)" />
    <path
       sodipodi:type="arc"
       style="opacity:0.98999999;fill:#ffffff;fill-opacity:1;stroke:#000000;stroke-width:1.77165353;stroke-miterlimit:4;stroke-opacity:1;stroke-dasharray:none"
       id="path3755-7"
       sodipodi:cx="-214.15234"
       sodipodi:cy="528.09302"
       sodipodi:rx="35.355339"
       sodipodi:ry="37.375645"
       d="m -178.797,528.09302 a 35.355339,37.375645 0 1 1 -70.71068,0 35.355339,37.375645 0 1 1 70.71068,0 z"
       transform="matrix(1.6632079,0,0,1.5733047,907.15849,-152.16737)" />
    <path
       sodipodi:type="arc"
       style="opacity:0.98999999;fill:#ffffff;fill-opacity:1;stroke:#000000;stroke-width:1.77165353;stroke-miterlimit:4;stroke-opacity:1;stroke-dasharray:none"
       id="path3755-1-4"
       sodipodi:cx="-214.15234"
       sodipodi:cy="528.09302"
       sodipodi:rx="35.355339"
       sodipodi:ry="37.375645"
       d="m -178.797,528.09302 a 35.355339,37.375645 0 1 1 -70.71068,0 35.355339,37.375645 0 1 1 70.71068,0 z"
       transform="matrix(1.6632079,0,0,1.5733047,907.15849,-492.32486)" />
    <path
       sodipodi:type="arc"
       style="opacity:0.98999999;fill:#ffffff;fill-opacity:1;stroke:#000000;stroke-width:7.44745684;stroke-miterlimit:4;stroke-opacity:1;stroke-dasharray:none"
       id="path3755-1-0"
       sodipodi:cx="-214.15234"
       sodipodi:cy="528.09302"
       sodipodi:rx="35.355339"
       sodipodi:ry="37.375645"
       d="m -178.797,528.09302 a 35.355339,37.375645 0 1 1 -70.71068,0 35.355339,37.375645 0 1 1 70.71068,0 z"
       transform="matrix(0.14675364,0,0,0.13882101,89.886578,757.73567)" />
    <path
       sodipodi:type="arc"
       style="opacity:0.98999999;fill:#ffffff;fill-opacity:1;stroke:#000000;stroke-width:7.44745684;stroke-miterlimit:4;stroke-opacity:1;stroke-dasharray:none"
       id="path3755-1-0-9"
       sodipodi:cx="-214.15234"
       sodipodi:cy="528.09302"
       sodipodi:rx="35.355339"
       sodipodi:ry="37.375645"
       d="m -178.797,528.09302 a 35.355339,37.375645 0 1 1 -70.71068,0 35.355339,37.375645 0 1 1 70.71068,0 z"
       transform="matrix(0.14675364,0,0,0.13882101,90.291638,700.63769)" />
    <path
       sodipodi:type="arc"
       style="opacity:0.98999999;fill:#ffffff;fill-opacity:1;stroke:#000000;stroke-width:7.44745684;stroke-miterlimit:4;stroke-opacity:1;stroke-dasharray:none"
       id="path3755-1-0-4"
       sodipodi:cx="-214.15234"
       sodipodi:cy="528.09302"
       sodipodi:rx="35.355339"
       sodipodi:ry="37.375645"
       d="m -178.797,528.09302 a 35.355339,37.375645 0 1 1 -70.71068,0 35.355339,37.375645 0 1 1 70.71068,0 z"
       transform="matrix(0.1467559,0,0,0.13882099,735.17409,757.33062)" />
    <path
       sodipodi:type="arc"
       style="opacity:0.98999999;fill:#ffffff;fill-opacity:1;stroke:#000000;stroke-width:7.44745684;stroke-miterlimit:4;stroke-opacity:1;stroke-dasharray:none"
       id="path3755-1-0-9-8"
       sodipodi:cx="-214.15234"
       sodipodi:cy="528.09302"
       sodipodi:rx="35.355339"
       sodipodi:ry="37.375645"
       d="m -178.797,528.09302 a 35.355339,37.375645 0 1 1 -70.71068,0 35.355339,37.375645 0 1 1 70.71068,0 z"
       transform="matrix(0.1467559,0,0,0.13882099,735.57916,700.23264)" />
    <path
       sodipodi:type="arc"
       style="opacity:0.98999999;fill:#ffffff;fill-opacity:1;stroke:#000000;stroke-width:7.44745684;stroke-miterlimit:4;stroke-opacity:1;stroke-dasharray:none"
       id="path3755-1-0-8"
       sodipodi:cx="-214.15234"
       sodipodi:cy="528.09302"
       sodipodi:rx="35.355339"
       sodipodi:ry="37.375645"
       d="m -178.797,528.09302 a 35.355339,37.375645 0 1 1 -70.71068,0 35.355339,37.375645 0 1 1 70.71068,0 z"
       transform="matrix(0.14675364,0,0,0.13882101,90.291638,169.14163)" />
    <path
       sodipodi:type="arc"
       style="opacity:0.98999999;fill:#ffffff;fill-opacity:1;stroke:#000000;stroke-width:7.44745684;stroke-miterlimit:4;stroke-opacity:1;stroke-dasharray:none"
       id="path3755-1-0-9-2"
       sodipodi:cx="-214.15234"
       sodipodi:cy="528.09302"
       sodipodi:rx="35.355339"
       sodipodi:ry="37.375645"
       d="m -178.797,528.09302 a 35.355339,37.375645 0 1 1 -70.71068,0 35.355339,37.375645 0 1 1 70.71068,0 z"
       transform="matrix(0.14675364,0,0,0.13882101,90.696698,112.04365)" />
    <path
       sodipodi:type="arc"
       style="opacity:0.98999999;fill:#ffffff;fill-opacity:1;stroke:#000000;stroke-width:7.44745684;stroke-miterlimit:4;stroke-opacity:1;stroke-dasharray:none"
       id="path3755-1-0-8-4"
       sodipodi:cx="-214.15234"
       sodipodi:cy="528.09302"
       sodipodi:rx="35.355339"
       sodipodi:ry="37.375645"
       d="m -178.797,528.09302 a 35.355339,37.375645 0 1 1 -70.71068,0 35.355339,37.375645 0 1 1 70.71068,0 z"
       transform="matrix(0.1467559,0,0,0.13882099,735.17409,169.14164)" />
    <path
       sodipodi:type="arc"
       style="opacity:0.98999999;fill:#ffffff;fill-opacity:1;stroke:#000000;stroke-width:7.44745684;stroke-miterlimit:4;stroke-opacity:1;stroke-dasharray:none"
       id="path3755-1-0-9-2-5"
       sodipodi:cx="-214.15234"
       sodipodi:cy="528.09302"
       sodipodi:rx="35.355339"
       sodipodi:ry="37.375645"
       d="m -178.797,528.09302 a 35.355339,37.375645 0 1 1 -70.71068,0 35.355339,37.375645 0 1 1 70.71068,0 z"
       transform="matrix(0.1467559,0,0,0.13882099,735.57916,112.04366)" />
  </g>
</svg>
