<?xml version="1.0" encoding="UTF-8" standalone="no"?>
<!-- Created with Inkscape (http://www.inkscape.org/) -->

<svg
   xmlns:dc="http://purl.org/dc/elements/1.1/"
   xmlns:cc="http://creativecommons.org/ns#"
   xmlns:rdf="http://www.w3.org/1999/02/22-rdf-syntax-ns#"
   xmlns:svg="http://www.w3.org/2000/svg"
   xmlns="http://www.w3.org/2000/svg"
   xmlns:sodipodi="http://sodipodi.sourceforge.net/DTD/sodipodi-0.dtd"
   xmlns:inkscape="http://www.inkscape.org/namespaces/inkscape"
   width="744.09448819"
   height="1052.3622047"
   id="svg2"
   version="1.1"
   inkscape:version="0.48.4 r9939"
   sodipodi:docname="Shelf.svg">
  <defs
     id="defs4" />
  <sodipodi:namedview
     id="base"
     pagecolor="#ffffff"
     bordercolor="#666666"
     borderopacity="1.0"
     inkscape:pageopacity="0.0"
     inkscape:pageshadow="2"
     inkscape:zoom="0.7"
     inkscape:cx="313.55287"
     inkscape:cy="589.62599"
     inkscape:document-units="mm"
     inkscape:current-layer="layer1"
     showgrid="false"
     inkscape:window-width="1920"
     inkscape:window-height="1018"
     inkscape:window-x="-8"
     inkscape:window-y="-8"
     inkscape:window-maximized="1" />
  <metadata
     id="metadata7">
    <rdf:RDF>
      <cc:Work
         rdf:about="">
        <dc:format>image/svg+xml</dc:format>
        <dc:type
           rdf:resource="http://purl.org/dc/dcmitype/StillImage" />
        <dc:title></dc:title>
      </cc:Work>
    </rdf:RDF>
  </metadata>
  <g
     inkscape:label="Layer 1"
     inkscape:groupmode="layer"
     id="layer1">
    <rect
       style="opacity:0.98999999000000005;fill:#cccccc;fill-opacity:1;stroke:#000000;stroke-width:2.27010225999999980;stroke-miterlimit:4;stroke-opacity:1;stroke-dasharray:none"
       id="rect2985"
       width="670.95825"
       height="670.95825"
       x="38.277908"
       y="174.55461" />
    <path
       sodipodi:type="arc"
       style="opacity:0.98999999;fill:#ffffff;fill-opacity:1;stroke:#000000;stroke-width:1.77165353;stroke-miterlimit:4;stroke-opacity:1;stroke-dasharray:none"
       id="path3755"
       sodipodi:cx="-214.15234"
       sodipodi:cy="528.09302"
       sodipodi:rx="35.355339"
       sodipodi:ry="37.375645"
       d="m -178.797,528.09302 a 35.355339,37.375645 0 1 1 -70.71068,0 35.355339,37.375645 0 1 1 70.71068,0 z"
       transform="matrix(1.4675364,0,0,1.3882101,517.95465,-52.991596)" />
    <path
       sodipodi:type="arc"
       style="opacity:0.98999999;fill:#ffffff;fill-opacity:1;stroke:#000000;stroke-width:1.77165353;stroke-miterlimit:4;stroke-opacity:1;stroke-dasharray:none"
       id="path3755-1"
       sodipodi:cx="-214.15234"
       sodipodi:cy="528.09302"
       sodipodi:rx="35.355339"
       sodipodi:ry="37.375645"
       d="m -178.797,528.09302 a 35.355339,37.375645 0 1 1 -70.71068,0 35.355339,37.375645 0 1 1 70.71068,0 z"
       transform="matrix(1.4675364,0,0,1.3882101,517.95465,-393.14908)" />
    <path
       sodipodi:type="arc"
       style="opacity:0.98999999;fill:#ffffff;fill-opacity:1;stroke:#000000;stroke-width:1.77165353;stroke-miterlimit:4;stroke-opacity:1;stroke-dasharray:none"
       id="path3755-7"
       sodipodi:cx="-214.15234"
       sodipodi:cy="528.09302"
       sodipodi:rx="35.355339"
       sodipodi:ry="37.375645"
       d="m -178.797,528.09302 a 35.355339,37.375645 0 1 1 -70.71068,0 35.355339,37.375645 0 1 1 70.71068,0 z"
       transform="matrix(1.4675364,0,0,1.3882101,858.11213,-52.991596)" />
    <path
       sodipodi:type="arc"
       style="opacity:0.98999999;fill:#ffffff;fill-opacity:1;stroke:#000000;stroke-width:1.77165353;stroke-miterlimit:4;stroke-opacity:1;stroke-dasharray:none"
       id="path3755-1-4"
       sodipodi:cx="-214.15234"
       sodipodi:cy="528.09302"
       sodipodi:rx="35.355339"
       sodipodi:ry="37.375645"
       d="m -178.797,528.09302 a 35.355339,37.375645 0 1 1 -70.71068,0 35.355339,37.375645 0 1 1 70.71068,0 z"
       transform="matrix(1.4675364,0,0,1.3882101,858.11213,-393.14908)" />
    <path
       sodipodi:type="arc"
       style="opacity:0.98999999;fill:#ffffff;fill-opacity:1;stroke:#000000;stroke-width:7.44745684;stroke-miterlimit:4;stroke-opacity:1;stroke-dasharray:none"
       id="path3755-1-0"
       sodipodi:cx="-214.15234"
       sodipodi:cy="528.09302"
       sodipodi:rx="35.355339"
       sodipodi:ry="37.375645"
       d="m -178.797,528.09302 a 35.355339,37.375645 0 1 1 -70.71068,0 35.355339,37.375645 0 1 1 70.71068,0 z"
       transform="matrix(0.14675364,0,0,0.13882101,82.743721,759.16426)" />
    <path
       sodipodi:type="arc"
       style="opacity:0.98999999;fill:#ffffff;fill-opacity:1;stroke:#000000;stroke-width:7.44745684;stroke-miterlimit:4;stroke-opacity:1;stroke-dasharray:none"
       id="path3755-1-0-9"
       sodipodi:cx="-214.15234"
       sodipodi:cy="528.09302"
       sodipodi:rx="35.355339"
       sodipodi:ry="37.375645"
       d="m -178.797,528.09302 a 35.355339,37.375645 0 1 1 -70.71068,0 35.355339,37.375645 0 1 1 70.71068,0 z"
       transform="matrix(0.14675364,0,0,0.13882101,83.148781,702.06628)" />
    <path
       sodipodi:type="arc"
       style="opacity:0.98999999;fill:#ffffff;fill-opacity:1;stroke:#000000;stroke-width:7.44745684;stroke-miterlimit:4;stroke-opacity:1;stroke-dasharray:none"
       id="path3755-1-0-4"
       sodipodi:cx="-214.15234"
       sodipodi:cy="528.09302"
       sodipodi:rx="35.355339"
       sodipodi:ry="37.375645"
       d="m -178.797,528.09302 a 35.355339,37.375645 0 1 1 -70.71068,0 35.355339,37.375645 0 1 1 70.71068,0 z"
       transform="matrix(0.1467559,0,0,0.13882099,728.03124,758.75921)" />
    <path
       sodipodi:type="arc"
       style="opacity:0.98999999;fill:#ffffff;fill-opacity:1;stroke:#000000;stroke-width:7.44745684;stroke-miterlimit:4;stroke-opacity:1;stroke-dasharray:none"
       id="path3755-1-0-9-8"
       sodipodi:cx="-214.15234"
       sodipodi:cy="528.09302"
       sodipodi:rx="35.355339"
       sodipodi:ry="37.375645"
       d="m -178.797,528.09302 a 35.355339,37.375645 0 1 1 -70.71068,0 35.355339,37.375645 0 1 1 70.71068,0 z"
       transform="matrix(0.1467559,0,0,0.13882099,728.43631,701.66123)" />
    <path
       sodipodi:type="arc"
       style="opacity:0.98999999;fill:#ffffff;fill-opacity:1;stroke:#000000;stroke-width:7.44745684;stroke-miterlimit:4;stroke-opacity:1;stroke-dasharray:none"
       id="path3755-1-0-8"
       sodipodi:cx="-214.15234"
       sodipodi:cy="528.09302"
       sodipodi:rx="35.355339"
       sodipodi:ry="37.375645"
       d="m -178.797,528.09302 a 35.355339,37.375645 0 1 1 -70.71068,0 35.355339,37.375645 0 1 1 70.71068,0 z"
       transform="matrix(0.14675364,0,0,0.13882101,83.148781,170.57022)" />
    <path
       sodipodi:type="arc"
       style="opacity:0.98999999;fill:#ffffff;fill-opacity:1;stroke:#000000;stroke-width:7.44745684;stroke-miterlimit:4;stroke-opacity:1;stroke-dasharray:none"
       id="path3755-1-0-9-2"
       sodipodi:cx="-214.15234"
       sodipodi:cy="528.09302"
       sodipodi:rx="35.355339"
       sodipodi:ry="37.375645"
       d="m -178.797,528.09302 a 35.355339,37.375645 0 1 1 -70.71068,0 35.355339,37.375645 0 1 1 70.71068,0 z"
       transform="matrix(0.14675364,0,0,0.13882101,83.553841,113.47224)" />
    <path
       sodipodi:type="arc"
       style="opacity:0.98999999;fill:#ffffff;fill-opacity:1;stroke:#000000;stroke-width:7.44745684;stroke-miterlimit:4;stroke-opacity:1;stroke-dasharray:none"
       id="path3755-1-0-8-4"
       sodipodi:cx="-214.15234"
       sodipodi:cy="528.09302"
       sodipodi:rx="35.355339"
       sodipodi:ry="37.375645"
       d="m -178.797,528.09302 a 35.355339,37.375645 0 1 1 -70.71068,0 35.355339,37.375645 0 1 1 70.71068,0 z"
       transform="matrix(0.1467559,0,0,0.13882099,728.03124,170.57023)" />
    <path
       sodipodi:type="arc"
       style="opacity:0.98999999;fill:#ffffff;fill-opacity:1;stroke:#000000;stroke-width:7.44745684;stroke-miterlimit:4;stroke-opacity:1;stroke-dasharray:none"
       id="path3755-1-0-9-2-5"
       sodipodi:cx="-214.15234"
       sodipodi:cy="528.09302"
       sodipodi:rx="35.355339"
       sodipodi:ry="37.375645"
       d="m -178.797,528.09302 a 35.355339,37.375645 0 1 1 -70.71068,0 35.355339,37.375645 0 1 1 70.71068,0 z"
       transform="matrix(0.1467559,0,0,0.13882099,728.43631,113.47225)" />
  </g>
</svg>
